<svg width="1024" height="1024" viewBox="0 0 1024 1024" fill="none" xmlns="http://www.w3.org/2000/svg">
<rect width="1024" height="1024" fill="#1E1E1E"/>
<rect width="1024" height="1024" fill="white"/>
<path d="M906.685 721.764C871.286 805.648 815.632 876.358 746.356 925.99C677.108 975.604 597.006 1002.2 515.23 1002.98C433.455 1003.77 352.972 978.718 282.993 930.454C212.986 882.17 156.269 812.556 119.599 729.378" stroke="#99BC85" stroke-width="36"/>
<path d="M109.393 319.486C142.582 232.349 197.324 158.052 266.819 105.259C336.286 52.4873 417.596 23.388 501.043 21.1408C584.486 18.8937 666.911 43.5808 738.508 92.5172C810.136 141.474 867.967 212.694 904.836 297.908" stroke="#99BC85" stroke-width="36"/>
<path d="M216.743 262.083C248.234 211.554 289.406 169.892 337.034 140.089C384.65 110.295 437.522 93.096 491.677 89.6467" stroke="#99BC85" stroke-width="36"/>
<rect x="327.403" y="193.77" width="368.449" height="701.099" rx="32" stroke="#99BC85" stroke-width="36"/>
<path d="M328.109 442.826H696.157" stroke="#99BC85" stroke-width="36"/>
<rect x="368.048" y="306.179" width="30.3336" height="100.926" rx="15.1668" fill="#99BC85"/>
<rect x="368.048" y="493.289" width="30.3336" height="141.75" rx="15.1668" fill="#99BC85"/>
<rect x="349.848" y="893.59" width="91.0009" height="46.4939" rx="10" fill="#99BC85"/>
<rect x="582.406" y="893.59" width="91.0009" height="46.4939" rx="10" fill="#99BC85"/>
<path d="M324.666 252.688C293.621 283.047 268.651 320.691 251.577 363.125C234.503 405.56 225.763 451.704 226.005 498.389C226.247 545.074 235.466 591.096 252.977 633.299C270.487 675.5 295.841 712.808 327.191 742.752" stroke="#99BC85" stroke-width="36"/>
<path d="M695.172 743.358C726.621 713.498 752.084 676.243 769.705 634.065C787.326 591.884 796.652 545.854 796.99 499.136C797.329 452.418 788.67 406.219 771.659 363.714C754.648 321.21 729.721 283.485 698.698 253.045" stroke="#99BC85" stroke-width="36"/>
<path d="M848.727 497.233L848.727 497.232C826.261 474.846 807.872 438.874 807.872 398.091C807.872 364.572 819.405 332.973 838.031 309.765C856.658 286.557 882.341 271.781 910.655 271.781C938.953 271.781 964.632 286.557 983.259 309.765C1001.89 332.972 1013.42 364.571 1013.42 398.09C1013.42 438.873 995.035 474.845 972.569 497.231L972.569 497.232C962.646 507.129 954.575 515.946 948.69 526.458C942.797 536.986 939.117 549.171 937.893 565.79L937.891 565.818V565.847V783.766C937.891 798.482 926.454 810.364 912.426 810.364H908.87C894.842 810.364 883.405 798.482 883.405 783.766V565.848V565.819L883.403 565.791C882.179 549.172 878.499 536.987 872.605 526.459C866.72 515.947 858.65 507.13 848.727 497.233Z" fill="#99BC85" stroke="#99BC85" stroke-width="1.5625"/>
<path d="M10.7838 413.9V413.897H10.0026C10.7838 413.897 10.7838 413.897 10.7838 413.896V413.894V413.89V413.884V413.877V413.868V413.858V413.846V413.832V413.817V413.801V413.782V413.763V413.741V413.718V413.694V413.668V413.641V413.612V413.581V413.549V413.515V413.48V413.444V413.406V413.366V413.325V413.282V413.238V413.193V413.146V413.097V413.047V412.996V412.943V412.889V412.833V412.776V412.717V412.657V412.595V412.532V412.468V412.402V412.335V412.267V412.197V412.125V412.052V411.978V411.903V411.826V411.747V411.668V411.587V411.504V411.42V411.335V411.249V411.161V411.072V410.981V410.889V410.796V410.702V410.606V410.509V410.41V410.311V410.21V410.107V410.004V409.899V409.793V409.685V409.577V409.467V409.355V409.243V409.129V409.014V408.898V408.78V408.662V408.542V408.42V408.298V408.174V408.049V407.923V407.796V407.668V407.538V407.407V407.275V407.142V407.008V406.872V406.735V406.597V406.458V406.318V406.177V406.034V405.891V405.746V405.6V405.453V405.305V405.155V405.005V404.853V404.701V404.547V404.392V404.236V404.079V403.921V403.762V403.602V403.441V403.278V403.115V402.95V402.785V402.618V402.451V402.282V402.112V401.942V401.77V401.597V401.423V401.249V401.073V400.896V400.718V400.539V400.36V400.179V399.997V399.814V399.631V399.446V399.261V399.074V398.886V398.698V398.509V398.318V398.127V397.935V397.742V397.548V397.353V397.157V396.96V396.762V396.564V396.364V396.164V395.963V395.761V395.558V395.354V395.149V394.943V394.737V394.53V394.321V394.112V393.903V393.692V393.48V393.268V393.055V392.841V392.626V392.411V392.194V391.977V391.759V391.54V391.321V391.1V390.879V390.657V390.435V390.211V389.987V389.762V389.537V389.31V389.083V388.855V388.626V388.397V388.167V387.936V387.705V387.472V387.24V387.006V386.772V386.537V386.301V386.065V385.828V385.59V385.351V385.112V384.873V384.632V384.391V384.15V383.907V383.664V383.421V383.177V382.932V382.686V382.44V382.194V381.947V381.699V381.45V381.201V380.952V380.701V380.451V380.199V379.947V379.695V379.442V379.188V378.934V378.679V378.424V378.168V377.912V377.655V377.398V377.14V376.881V376.622V376.363V376.103V375.843V375.582V375.32V375.058V374.796V374.533V374.27V374.006V373.742V373.477V373.212V372.947V372.681V372.414V372.147V371.88V371.612V371.344V371.075V370.806V370.537V370.267V369.997V369.727V369.456V369.184V368.912V368.64V368.368V368.095V367.822V367.548V367.274V367V366.725V366.45V366.175V365.9V365.624V365.347V365.071V364.794V364.517V364.239V363.961V363.683V363.405V363.126V362.847V362.568V362.289V362.009V361.729V361.449V361.168V360.887V360.606V360.325V360.044V359.762V359.48V359.198V358.915V358.633V358.35V358.067V357.784V357.5V357.217V356.933V356.649V356.365V356.081V355.796V355.512V355.227V354.942V354.657V354.372V354.086V353.801V353.515V353.229V352.943V352.657V352.371V352.085V351.799V351.512V351.226V350.939V350.652V350.366V350.079V349.792V349.505V349.218V348.931V348.643V348.356V348.069V347.782V347.494V347.207V346.919V346.632V346.345V346.057V345.77V345.482V345.195V344.907V344.62V344.332V344.045V343.757V343.47V343.183V342.895V342.608V342.321V342.034V341.746V341.459V341.172V340.885V340.599V340.312V340.025V339.738V339.452V339.165V338.879V338.593V338.307V338.021V337.735V337.449V337.163V336.878V336.592V336.307V336.022V335.737V335.452V335.168V334.883V334.599V334.315V334.031V333.747V333.463V333.18V332.897V332.614V332.331V332.048V331.766V331.484V331.202V330.92V330.638V330.357V330.076V329.795V329.515V329.234V328.954V328.675V328.395V328.116V327.837V327.558V327.28V327.002V326.724V326.446V326.169V325.892V325.616V325.339V325.063V324.788V324.512V324.237V323.963V323.688V323.414V323.141V322.868V322.595V322.322V322.05V321.778V321.507V321.236V320.965V320.695V320.425V320.156V319.887V319.618V319.35V319.082V318.815V318.548V318.281V318.015V317.749V317.484V317.219V316.955V316.691V316.428V316.165V315.903V315.641V315.379V315.118V314.858V314.598V314.338V314.079V313.821V313.563V313.306V313.049V312.792V312.536V312.281V312.026V311.772V311.518V311.265V311.013V310.761V310.509V310.258V310.008V309.759V309.509V309.261V309.013V308.766V308.519V308.273V308.027V307.782V307.538V307.294V307.051V306.809V306.567V306.326V306.086V305.846V305.607V305.368V305.131V304.894V304.657V304.421V304.186V303.952V303.718C10.7838 295.595 13.6182 289.494 17.8169 285.398C22.025 281.293 27.6448 279.164 33.2755 279.071C38.9058 278.978 44.5163 280.922 48.7148 284.926C52.9039 288.92 55.7415 295.018 55.7415 303.339V418.727C55.7415 426.493 61.7802 432.86 69.3067 432.86H72.7198C80.2451 432.86 86.3002 426.495 86.3002 418.727V302.812C86.3002 293.489 89.2992 287.552 93.6214 283.929C97.9688 280.284 103.77 278.884 109.537 278.884C115.313 278.884 121.118 280.284 125.468 283.929C129.792 287.552 132.791 293.489 132.791 302.812V418.727C132.791 426.494 138.845 432.86 146.356 432.86H149.785C157.313 432.86 163.351 426.493 163.351 418.727V303.339C163.351 295.018 166.188 288.92 170.377 284.926C174.576 280.922 180.186 278.978 185.816 279.071C191.447 279.164 197.067 281.293 201.275 285.398C205.473 289.493 208.308 295.595 208.307 303.718V303.952V304.186V304.421V304.657V304.894V305.131V305.368V305.607V305.846V306.086V306.326V306.567V306.809V307.051V307.294V307.538V307.782V308.027V308.273V308.519V308.766V309.013V309.261V309.509V309.759V310.008V310.258V310.509V310.761V311.013V311.265V311.518V311.772V312.026V312.281V312.536V312.792V313.049V313.306V313.563V313.821V314.079V314.338V314.598V314.858V315.118V315.379V315.641V315.903V316.165V316.428V316.691V316.955V317.219V317.484V317.749V318.015V318.281V318.548V318.815V319.082V319.35V319.618V319.887V320.156V320.425V320.695V320.965V321.236V321.507V321.778V322.05V322.322V322.595V322.868V323.141V323.414V323.688V323.963V324.237V324.512V324.788V325.063V325.339V325.616V325.892V326.169V326.446V326.724V327.002V327.28V327.558V327.837V328.116V328.395V328.675V328.954V329.234V329.515V329.795V330.076V330.357V330.638V330.92V331.202V331.484V331.766V332.048V332.331V332.614V332.897V333.18V333.463V333.747V334.031V334.315V334.599V334.883V335.168V335.452V335.737V336.022V336.307V336.592V336.878V337.163V337.449V337.735V338.021V338.307V338.593V338.879V339.165V339.452V339.738V340.025V340.312V340.599V340.885V341.172V341.459V341.746V342.034V342.321V342.608V342.895V343.183V343.47V343.757V344.045V344.332V344.62V344.907V345.195V345.482V345.77V346.057V346.345V346.632V346.919V347.207V347.494V347.782V348.069V348.356V348.643V348.931V349.218V349.505V349.792V350.079V350.366V350.652V350.939V351.226V351.512V351.799V352.085V352.371V352.657V352.943V353.229V353.515V353.801V354.086V354.372V354.657V354.942V355.227V355.512V355.796V356.081V356.365V356.649V356.933V357.217V357.5V357.784V358.067V358.35V358.633V358.915V359.198V359.48V359.762V360.044V360.325V360.606V360.887V361.168V361.449V361.729V362.009V362.289V362.568V362.847V363.126V363.405V363.683V363.961V364.239V364.517V364.794V365.071V365.347V365.624V365.9V366.175V366.45V366.725V367V367.274V367.548V367.822V368.095V368.368V368.64V368.912V369.184V369.456V369.727V369.997V370.267V370.537V370.806V371.075V371.344V371.612V371.88V372.147V372.414V372.681V372.947V373.212V373.477V373.742V374.006V374.27V374.533V374.796V375.058V375.32V375.582V375.843V376.103V376.363V376.622V376.881V377.14V377.398V377.655V377.912V378.168V378.424V378.679V378.934V379.188V379.442V379.695V379.947V380.199V380.451V380.701V380.952V381.201V381.45V381.699V381.947V382.194V382.44V382.686V382.932V383.177V383.421V383.664V383.907V384.15V384.391V384.632V384.873V385.112V385.351V385.59V385.828V386.065V386.301V386.537V386.772V387.006V387.24V387.472V387.705V387.936V388.167V388.397V388.626V388.855V389.083V389.31V389.537V389.762V389.987V390.211V390.435V390.657V390.879V391.1V391.321V391.54V391.759V391.977V392.194V392.411V392.626V392.841V393.055V393.268V393.48V393.692V393.903V394.112V394.321V394.53V394.737V394.943V395.149V395.354V395.558V395.761V395.963V396.164V396.364V396.564V396.762V396.96V397.157V397.353V397.548V397.742V397.935V398.127V398.318V398.509V398.698V398.886V399.074V399.261V399.446V399.631V399.814V399.997V400.179V400.36V400.539V400.718V400.896V401.073V401.249V401.423V401.597V401.77V401.942V402.112V402.282V402.451V402.618V402.785V402.95V403.115V403.278V403.441V403.602V403.762V403.921V404.079V404.236V404.392V404.547V404.701V404.853V405.005V405.155V405.305V405.453V405.6V405.746V405.891V406.034V406.177V406.318V406.458V406.597V406.735V406.872V407.008V407.142V407.275V407.407V407.538V407.668V407.796V407.923V408.049V408.174V408.298V408.42V408.542V408.662V408.78V408.898V409.014V409.129V409.243V409.355V409.467V409.577V409.685V409.793V409.899V410.004V410.107V410.21V410.311V410.41V410.509V410.606V410.702V410.796V410.889V410.981V411.072V411.161V411.249V411.335V411.42V411.504V411.587V411.668V411.747V411.826V411.903V411.978V412.052V412.125V412.197V412.267V412.335V412.402V412.468V412.532V412.595V412.657V412.717V412.776V412.833V412.889V412.943V412.996V413.047V413.097V413.146V413.193V413.238V413.282V413.325V413.366V413.406V413.444V413.48V413.515V413.549V413.581V413.612V413.641V413.668V413.694V413.718V413.741V413.763V413.782V413.801V413.817V413.832V413.846V413.858V413.868V413.877V413.884V413.89V413.894V413.896C208.307 413.897 208.307 413.897 209.089 413.897H208.307V413.9C208.418 444.447 204.972 463.582 198.67 477.434C192.376 491.267 183.201 499.91 171.648 509.428C169.9 510.868 168.17 512.254 166.47 513.616C159.164 519.47 152.413 524.88 147.228 532.174C140.798 541.219 136.789 553.117 136.789 572.307V790.208C136.789 804.924 125.351 816.806 111.323 816.806H107.768C93.7241 816.806 82.3025 804.924 82.3025 790.208V572.307C82.3025 553.117 78.2888 541.219 71.8554 532.174C66.6707 524.885 59.9216 519.477 52.6196 513.627C50.915 512.262 49.1804 510.872 47.4284 509.428C35.8833 499.91 26.7117 491.267 20.42 477.434C14.1195 463.582 10.6733 444.447 10.7838 413.9Z" fill="#99BC85" stroke="#99BC85" stroke-width="1.5625"/>
</svg>
